<?xml version="1.0" encoding="UTF-8" standalone="no" ?>
<!DOCTYPE svg PUBLIC "-//W3C//DTD SVG 1.1//EN" "http://www.w3.org/Graphics/SVG/1.1/DTD/svg11.dtd">
<svg xmlns="http://www.w3.org/2000/svg" xmlns:xlink="http://www.w3.org/1999/xlink" version="1.1" width="500" height="281" viewBox="0 0 1080 1080" xml:space="preserve">
<desc>Created with Fabric.js 5.2.4</desc>
<defs>
</defs>
<rect x="0" y="0" width="100%" height="100%" fill="transparent"></rect>
<g transform="matrix(1 0 0 1 540 540)" id="09ba47ed-c0ab-475f-8476-7c4e8a09214b"  >
<rect style="stroke: none; stroke-width: 1; stroke-dasharray: none; stroke-linecap: butt; stroke-dashoffset: 0; stroke-linejoin: miter; stroke-miterlimit: 4; fill: rgb(255,255,255); fill-rule: nonzero; opacity: 1; visibility: hidden;" vector-effect="non-scaling-stroke"  x="-540" y="-540" rx="0" ry="0" width="1080" height="1080" />
</g>
<g transform="matrix(1 0 0 1 540 540)" id="f2ffcda1-9775-4d55-bccc-aa92fce7fb76"  >
</g>
<g transform="matrix(0.97 0 0 0.97 475.05 512.62)"  >
<g style="" vector-effect="non-scaling-stroke"   >
		<g transform="matrix(1 0 0 1 -83.8 0.29)"  >
<path style="stroke: none; stroke-width: 1; stroke-dasharray: none; stroke-linecap: butt; stroke-dashoffset: 0; stroke-linejoin: miter; stroke-miterlimit: 4; fill: rgb(230,230,230); fill-rule: nonzero; opacity: 1;" vector-effect="non-scaling-stroke"  transform=" translate(-544.9, -420.66)" d="M 555.73364 405.49075 C 546.2337923029439 405.48370098349244 537.2812815258795 409.93529821409356 531.55352 417.51421 C 525.3934144357199 414.8633179753683 518.3132885231881 415.4869583335751 512.7114381844798 419.1738814236387 C 507.1095878457715 422.8608045137023 503.73659691982687 429.1170048339593 503.7350200000001 435.82328 L 586.06617 435.82328 C 586.0661859130463 427.77858798710724 582.8704515020818 420.063381047688 577.1819952271969 414.3749247728031 C 571.4935389523121 408.68646849791827 563.7783320128927 405.49073408695375 555.73364 405.49075 Z" stroke-linecap="round" />
</g>
		<g transform="matrix(1 0 0 1 -139.4 117.57)"  >
<path style="stroke: none; stroke-width: 1; stroke-dasharray: none; stroke-linecap: butt; stroke-dashoffset: 0; stroke-linejoin: miter; stroke-miterlimit: 4; fill: rgb(63,61,86); fill-rule: nonzero; opacity: 1;" vector-effect="non-scaling-stroke"  transform=" translate(-489.3, -537.94)" d="M 669.46656 384.5 L 309.13411 384.5 C 299.10111983735385 384.51420485724896 290.9713148572489 392.64400983735385 290.95711 402.677 L 290.95711 673.19362 C 290.9713093642582 683.2266124424737 299.10111755752644 691.3564206357419 309.13411 691.37062 L 669.46656 691.37062 C 679.4995524424736 691.3564206357419 687.6293606357418 683.2266124424737 687.64356 673.19362 L 687.64356 402.677 C 687.629355142751 392.64400983735385 679.4995501626462 384.51420485724896 669.46656 384.5 Z M 685.5051 673.19362 C 685.4943279603436 682.0469952878251 678.319935287825 689.2213879603437 669.46656 689.23216 L 309.13411 689.23216 C 300.280734712175 689.2213879603437 293.1063420396564 682.0469952878251 293.09557 673.19362 L 293.09557 402.677 C 293.1063420396564 393.823624712175 300.28073471217493 386.6492320396564 309.13411 386.63846 L 669.46656 386.63846 C 678.319935287825 386.6492320396564 685.4943279603436 393.823624712175 685.5051 402.677 Z" stroke-linecap="round" />
</g>
		<g transform="matrix(1 0 0 1 -277.33 78.01)"  >
<circle style="stroke: none; stroke-width: 1; stroke-dasharray: none; stroke-linecap: butt; stroke-dashoffset: 0; stroke-linejoin: miter; stroke-miterlimit: 4; fill: rgb(45,128,0); fill-rule: nonzero; opacity: 1;" vector-effect="non-scaling-stroke"  cx="0" cy="0" r="80.7273" />
</g>
		<g transform="matrix(1 0 0 1 -139.4 110.74)"  >
<path style="stroke: none; stroke-width: 1; stroke-dasharray: none; stroke-linecap: butt; stroke-dashoffset: 0; stroke-linejoin: miter; stroke-miterlimit: 4; fill: rgb(63,61,86); fill-rule: nonzero; opacity: 1;" vector-effect="non-scaling-stroke"  transform=" translate(-489.3, -531.11)" d="M 687.64357 613.39127 L 687.64357 635.77037 L 290.9571 635.77037 L 290.9571 613.28431 L 293.09557 610.20497 L 418.85921 429.10845 C 420.0170851718562 427.4407454542624 421.91853041793513 426.4461015412672 423.94878000000006 426.4461015412672 C 425.9790295820649 426.4461015412672 427.88047482814386 427.4407454542624 429.03835000000004 429.10845 L 513.37954 550.54156 L 573.4170300000001 464.85306 C 574.5763707711636 463.1946120075743 576.4724077792927 462.2066623483469 578.4959000000001 462.2066623483469 C 580.5193922207075 462.2066623483469 582.4154292288365 463.1946120075743 583.5747700000001 464.85306 L 685.5051 610.33327 Z" stroke-linecap="round" />
</g>
		<g transform="matrix(1 0 0 1 -282.14 240)"  >
<path style="stroke: none; stroke-width: 1; stroke-dasharray: none; stroke-linecap: butt; stroke-dashoffset: 0; stroke-linejoin: miter; stroke-miterlimit: 4; fill: rgb(63,61,86); fill-rule: nonzero; opacity: 1;" vector-effect="non-scaling-stroke"  transform=" translate(-346.56, -660.36)" d="M 378.09981 661.432 L 315.0149 661.432 C 314.42565439059604 661.4301979772063 313.9489299197264 660.9520133648582 313.9489299197264 660.3627650000001 C 313.9489299197264 659.7735166351418 314.42565439059604 659.2953320227938 315.0149 659.29353 L 378.09981 659.29353 C 378.6903321844853 659.29353 379.169045 659.7722428155147 379.169045 660.362765 C 379.169045 660.9532871844854 378.6903321844853 661.432 378.09981 661.432 Z" stroke-linecap="round" />
</g>
		<g transform="matrix(1 0 0 1 -186.98 240)"  >
<path style="stroke: none; stroke-width: 1; stroke-dasharray: none; stroke-linecap: butt; stroke-dashoffset: 0; stroke-linejoin: miter; stroke-miterlimit: 4; fill: rgb(63,61,86); fill-rule: nonzero; opacity: 1;" vector-effect="non-scaling-stroke"  transform=" translate(-441.72, -660.36)" d="M 473.2618 661.432 L 410.17689 661.432 C 409.7941102030887 661.4331706118943 409.4399051670452 661.2296319718947 409.2481765460329 660.898328668047 C 409.0564479250205 660.5670253641994 409.0564479250205 660.1585046358007 409.2481765460329 659.827201331953 C 409.4399051670452 659.4958980281053 409.7941102030887 659.2923593881058 410.17689 659.29353 L 473.2618 659.29353 C 473.85232218448533 659.29353 474.331035 659.7722428155147 474.331035 660.362765 C 474.331035 660.9532871844854 473.85232218448533 661.432 473.2618 661.432 Z" stroke-linecap="round" />
</g>
		<g transform="matrix(1 0 0 1 -91.81 240)"  >
<path style="stroke: none; stroke-width: 1; stroke-dasharray: none; stroke-linecap: butt; stroke-dashoffset: 0; stroke-linejoin: miter; stroke-miterlimit: 4; fill: rgb(63,61,86); fill-rule: nonzero; opacity: 1;" vector-effect="non-scaling-stroke"  transform=" translate(-536.88, -660.36)" d="M 568.42378 661.432 L 505.33887 661.432 C 504.749624390596 661.4301979772063 504.2728999197264 660.9520133648582 504.2728999197264 660.3627650000001 C 504.2728999197264 659.7735166351418 504.749624390596 659.2953320227938 505.33887 659.29353 L 568.42378 659.29353 C 569.0143021844852 659.29353 569.4930149999999 659.7722428155147 569.493015 660.362765 C 569.493015 660.9532871844854 569.0143021844852 661.432 568.42378 661.432 Z" stroke-linecap="round" />
</g>
		<g transform="matrix(1 0 0 1 3.35 240)"  >
<path style="stroke: none; stroke-width: 1; stroke-dasharray: none; stroke-linecap: butt; stroke-dashoffset: 0; stroke-linejoin: miter; stroke-miterlimit: 4; fill: rgb(63,61,86); fill-rule: nonzero; opacity: 1;" vector-effect="non-scaling-stroke"  transform=" translate(-632.04, -660.36)" d="M 663.58577 661.432 L 600.50085 661.432 C 599.911604390596 661.4301979772063 599.4348799197264 660.9520133648582 599.4348799197264 660.3627650000001 C 599.4348799197264 659.7735166351418 599.911604390596 659.2953320227938 600.50085 659.29353 L 663.58577 659.29353 C 664.1762921844853 659.29353 664.655005 659.7722428155147 664.6550050000001 660.362765 C 664.6550050000001 660.9532871844854 664.1762921844853 661.432 663.58577 661.432 Z" stroke-linecap="round" />
</g>
		<g transform="matrix(0.74 -0.67 0.67 0.74 142.42 -60.34)"  >
<ellipse style="stroke: none; stroke-width: 1; stroke-dasharray: none; stroke-linecap: butt; stroke-dashoffset: 0; stroke-linejoin: miter; stroke-miterlimit: 4; fill: rgb(230,230,230); fill-rule: nonzero; opacity: 1;" vector-effect="non-scaling-stroke"  cx="0" cy="0" rx="186.04702" ry="115.47746" />
</g>
		<g transform="matrix(1 0 0 1 82.02 79.4)"  >
<path style="stroke: none; stroke-width: 1; stroke-dasharray: none; stroke-linecap: butt; stroke-dashoffset: 0; stroke-linejoin: miter; stroke-miterlimit: 4; fill: rgb(204,204,204); fill-rule: nonzero; opacity: 1;" vector-effect="non-scaling-stroke"  transform=" translate(-710.72, -499.76)" d="M 626.94259 634.38948 C 616.66888 613.1664800000001 613.03073 589.2535600000001 614.81945 565.8406200000001 C 616.7602093142114 542.5757051988592 623.6237205592647 519.9889895560112 634.9550399999999 499.57762 C 645.7758299999999 479.79276000000004 660.07773 462.08279000000005 676.33475 446.50982000000005 C 693.58889 429.98170000000005 713.0450999999999 415.95032000000003 733.51575 403.68736000000007 C 755.13217 390.73804000000007 777.84604 379.7334900000001 800.82424 369.4372800000001 Q 805.11969 367.5125400000001 809.42841 365.6177000000001 C 811.31354 364.78770000000014 809.68299 362.02300000000014 807.80941 362.8479400000001 C 784.38164 373.1633100000001 761.1512299999999 384.0340700000001 738.9368 396.78930000000014 C 717.71431 408.97497000000016 697.4105 422.9149400000001 679.2706499999999 439.38803000000013 C 662.34886 454.75503000000015 647.26789 472.33408000000014 635.5744299999999 492.0165500000001 C 623.4155367342387 512.1965803139324 615.5310396925861 534.6589032225965 612.4096599999999 558.0111900000003 C 609.4138899999999 581.5291200000001 611.7299899999999 605.9856900000002 620.6458399999999 628.0520600000002 Q 622.2766699999999 632.0883100000002 624.1727799999999 636.0085000000003 C 625.0720099999999 637.8660800000002 627.8390099999999 636.2414000000002 626.9425499999999 634.3895000000002 Z" stroke-linecap="round" />
</g>
		<g transform="matrix(1 0 0 1 103.6 -72.17)"  >
<path style="stroke: none; stroke-width: 1; stroke-dasharray: none; stroke-linecap: butt; stroke-dashoffset: 0; stroke-linejoin: miter; stroke-miterlimit: 4; fill: rgb(204,204,204); fill-rule: nonzero; opacity: 1;" vector-effect="non-scaling-stroke"  transform=" translate(-732.29, -348.19)" d="M 715.42365 411.86714 C 714.3633319836852 394.3775793244486 715.679489186855 376.8250041047694 719.33615 359.68914 C 722.9814067716529 342.54384577023745 728.8984683720387 325.96170311426283 736.93065 310.3818100000001 C 741.4522998700219 301.63566074997567 746.6340325608138 293.2468885792336 752.43082 285.28839000000005 C 753.6476 283.6176300000001 750.8657400000001 282.01526000000007 749.66105 283.66939 C 739.2457586342651 298.01535372808496 730.8153651321959 313.7020492647422 724.59838 330.30427999999995 C 718.3670400864119 346.908398424419 714.3689168593594 364.2666895872243 712.7089100000001 381.92372 C 711.7719991479327 391.87717964327817 711.607173212699 401.88824222715857 712.21591 411.86715 C 712.34085 413.91814999999997 715.54942 413.93235 715.42362 411.86715 Z" stroke-linecap="round" />
</g>
		<g transform="matrix(1 0 0 1 -151.16 54.49)"  >
<path style="stroke: none; stroke-width: 1; stroke-dasharray: none; stroke-linecap: butt; stroke-dashoffset: 0; stroke-linejoin: miter; stroke-miterlimit: 4; fill: rgb(204,204,204); fill-rule: nonzero; opacity: 1;" vector-effect="non-scaling-stroke"  transform=" translate(-477.54, -474.85)" d="M 490.90419 456.13876 C 479.1835975313847 456.13006449856334 468.13829110968425 461.6222948759959 461.07157 470.9729 C 453.47143699412203 467.7023089291883 444.73620902321903 468.4717280197176 437.82482598483796 473.02052699926 C 430.9134429464568 477.56932597880245 426.75195135638546 485.28801765461657 426.75 493.562 L 528.3274 493.562 C 528.3274159130176 483.63673996827606 524.3846308186334 474.1179877415413 517.3664149581997 467.0997662550143 C 510.34819909776616 460.0815447684873 500.82945003173353 456.13875204348005 490.90419 456.13876 Z" stroke-linecap="round" />
</g>
</g>
</g>
<g transform="matrix(0.71 -0.71 0.71 0.71 950.82 431.56)" style="" id="d71ee002-596d-4d81-8c73-84227d1177ad"  >
		<text xml:space="preserve" font-family="Raleway" font-size="105" font-style="normal" font-weight="900" style="stroke: none; stroke-width: 1; stroke-dasharray: none; stroke-linecap: butt; stroke-dashoffset: 0; stroke-linejoin: miter; stroke-miterlimit: 4; fill: rgb(45,128,0); fill-rule: nonzero; opacity: 1; white-space: pre;" ><tspan x="-432" y="-26.34" >no</tspan><tspan x="-432" y="92.31" >image!</tspan></text>
</g>
</svg>